# xmcd CD database file
#
# Track frame offsets:
#	150
#	44453
#	67712
#	95465
#	133044
#	185693
#	235113
#	271700
#	323244
#
# Disc length: 4752 seconds
#
# Revision: 0
# Processed by: cddbd v1.5.2PL0 Copyright (c) Steve Scherf et al.
# Submitted via: CDex 1.51
#
DISCID=75128e09
DTITLE=Sting - 1988 Live Estadio River Plate
DYEAR=1988
DGENRE=Jazz
TTITLE0=Sting - Introduction..The Lazarus Heart..Too Much Information
TTITLE1=Sting - We'll Be Together
TTITLE2=Sting - If You Love Somebody Set Them Free
TTITLE3=Sting - One World (Not Three)
TTITLE4=Sting - Fragilidad..Driven To Tears
TTITLE5=Sting - Bring On The Night..When The World Is Running Down
TTITLE6=Sting - Don't Stand So Close To Me
TTITLE7=Sting - Ellas Danzan Solas (Cueca Solas)
TTITLE8=Sting - Every Breath You Take
EXTD=YEAR: 1988
EXTT0=
EXTT1=
EXTT2=
EXTT3=
EXTT4=
EXTT5=
EXTT6=
EXTT7=
EXTT8=
PLAYORDER=
